<svg xmlns="http://www.w3.org/2000/svg" viewBox="0 0 219 219"><defs><style>.cls-1{fill:#7a1cff;}.cls-2,.cls-4{fill:#fff;}.cls-3,.cls-5{fill:none;}.cls-3{stroke:#fff;}.cls-3,.cls-4,.cls-5{stroke-miterlimit:10;stroke-width:2px;}.cls-4,.cls-5{stroke:#7a1cff;}</style></defs><title>Logo_Charabnb_vector_detailled</title><g id="Layer_3" data-name="Layer 3"><rect class="cls-1" width="219" height="219" rx="12" ry="12"/></g><g id="Layer_4" data-name="Layer 4"><path class="cls-2" d="M328.5,152.5s-1-11,6-14,12-1,14,0,4,5,6,10l11,13a63.78,63.78,0,0,1-9,6s12-1,13,15,9,94,50,118c0,0-21-3-37-28,0,0,6,14,9,19s7,8,9,15h-36l3-6a3.7,3.7,0,0,1,3-2c2,0,8-1,9-2,0,0-72-53-46-121a24.43,24.43,0,0,1,9-5s-7-4-15-3v-9S330,157,330,156v-4Z" transform="translate(-281 -114)"/><path class="cls-2" d="M359,267s-15,6-31,35l-23-27,7-2s1-1,4,1,10,4,10,4,7-25,18-28Z" transform="translate(-281 -114)"/></g><g id="Layer_5" data-name="Layer 5"><path class="cls-2" d="M448,218s-1-8,8-8c8,0,7,8,7,8v40l15,43s2.94,6.42-1,8c-5,2-7-3-8-5l-13-34-11,35s-2,4-5,3-4-5-3-8c1.61-4.84,1.57-11.82,11-42Z" transform="translate(-281 -114)"/><path class="cls-2" d="M452,219l-22,25s-4,3-1,6,6,0,6,0l17-20Z" transform="translate(-281 -114)"/><line class="cls-3" x1="148" y1="129" x2="84" y2="59"/><circle class="cls-4" cx="174" cy="86" r="11"/></g><g id="Layer_6" data-name="Layer 6"><line class="cls-5" x1="178.5" y1="107.5" x2="155.5" y2="135.5"/><line class="cls-5" x1="172.5" y1="148.5" x2="187.24" y2="190"/><path class="cls-5" d="M336,171s22-3,29-8" transform="translate(-281 -114)"/><line class="cls-5" x1="45" y1="44" x2="53" y2="55"/><path class="cls-5" d="M367,162s-15,0-21,2l-7-12s-3-1-12,2" transform="translate(-281 -114)"/><line class="cls-5" x1="65" y1="49" x2="51" y2="54"/><path class="cls-5" d="M342,170s12,1,22,46,27,74,36,78" transform="translate(-281 -114)"/><path class="cls-5" d="M333,239s15,31,33,47" transform="translate(-281 -114)"/><path class="cls-5" d="M346,187l10,48a8,8,0,0,0,9,5c5-.72,4.57-2.7,4.57-2.7" transform="translate(-281 -114)"/></g></svg>