<svg xmlns="http://www.w3.org/2000/svg" viewBox="0 0 219 219"><defs><style>.cls-1{fill:#7a1cff;}.cls-2{fill:#fff;}.cls-3{fill:none;stroke:#fff;stroke-miterlimit:10;stroke-width:2px;}</style></defs><title>Logo_Charabnb_vector</title><g id="Layer_3" data-name="Layer 3"><rect class="cls-1" width="219" height="219" rx="12" ry="12"/></g><g id="Layer_4" data-name="Layer 4"><path class="cls-2" d="M328.5,152.5s-1-11,6-14,12-1,14,0,4,5,6,10l11,13a63.78,63.78,0,0,1-9,6s12-1,13,15,9,94,50,118c0,0-21-3-37-28,0,0,6,14,9,19s7,8,9,15h-36l3-6a3.7,3.7,0,0,1,3-2c2,0,8-1,9-2,0,0-72-53-46-121a24.43,24.43,0,0,1,9-5s-7-4-15-3v-9S330,157,330,156v-4Z" transform="translate(-281 -114)"/><path class="cls-2" d="M359,267s-15,6-31,35l-23-27,7-2s1-1,4,1,10,4,10,4,7-25,18-28Z" transform="translate(-281 -114)"/></g><g id="Layer_5" data-name="Layer 5"><circle class="cls-2" cx="174" cy="86" r="11"/><path class="cls-2" d="M448,218s-1-8,8-8c8,0,7,8,7,8v40l15,43s2.94,6.42-1,8c-5,2-7-3-8-5l-13-34-11,35s-2,4-5,3-4-5-3-8c1.61-4.84,1.57-11.82,11-42Z" transform="translate(-281 -114)"/><path class="cls-2" d="M452,219l-22,25s-4,3-1,6,6,0,6,0l17-20Z" transform="translate(-281 -114)"/><line class="cls-3" x1="149" y1="131" x2="84" y2="58"/></g></svg>